<?xml version="1.0"?>
<svg version="1.1" id="topsvg"
xmlns="http://www.w3.org/2000/svg" xmlns:xlink="http://www.w3.org/1999/xlink"
xmlns:cml="http://www.xml-cml.org/schema" x="0" y="0" width="200px" height="200px" viewBox="0 0 100 100">
<title> - Open Babel Depiction</title>
<rect x="0" y="0" width="100" height="100" fill="white"/>
<g transform="translate(0,0)">
<svg width="100" height="100" x="0" y="0" viewBox="0 0 417.387 257.773"
font-family="sans-serif" stroke="rgb(0,0,0)" stroke-width="2"  stroke-linecap="round">
<line x1="142.8" y1="129.3" x2="142.0" y2="127.9" stroke="rgb(0,0,0)"  stroke-width="1.0"/>
<line x1="137.5" y1="133.1" x2="136.1" y2="130.6" stroke="rgb(0,0,0)"  stroke-width="1.0"/>
<line x1="132.3" y1="136.8" x2="130.2" y2="133.2" stroke="rgb(0,0,0)"  stroke-width="1.0"/>
<line x1="127.1" y1="140.6" x2="124.4" y2="135.9" stroke="rgb(0,0,0)"  stroke-width="1.0"/>
<line x1="121.9" y1="144.3" x2="118.5" y2="138.5" stroke="rgb(0,0,0)"  stroke-width="1.0"/>
<line x1="116.6" y1="148.1" x2="112.6" y2="141.2" stroke="rgb(0,0,0)"  stroke-width="1.0"/>
<line x1="114.6" y1="144.6" x2="91.3" y2="131.1" stroke="rgb(0,0,0)"  stroke-width="2.0"/>
<polygon points="153.463171 84.858286 130.870367 69.898165 136.223412 63.953006 " stroke-width="2.000000" fill="rgb(0,0,0)"  stroke="rgb(0,0,0)" />
<polygon points="192.589075 76.541818 199.835435 50.431853 207.143799 53.685747 " stroke-width="2.000000" fill="rgb(0,0,0)"  stroke="rgb(0,0,0)" />
<line x1="338.3" y1="171.4" x2="364.7" y2="165.8" stroke="rgb(0,0,0)"  stroke-width="2.0"/>
<line x1="218.0" y1="110.9" x2="217.8" y2="112.5" stroke="rgb(0,0,0)"  stroke-width="1.0"/>
<line x1="222.3" y1="110.8" x2="222.0" y2="113.6" stroke="rgb(0,0,0)"  stroke-width="1.0"/>
<line x1="226.7" y1="110.6" x2="226.2" y2="114.7" stroke="rgb(0,0,0)"  stroke-width="1.0"/>
<line x1="231.0" y1="110.4" x2="230.4" y2="115.8" stroke="rgb(0,0,0)"  stroke-width="1.0"/>
<line x1="235.3" y1="110.2" x2="234.6" y2="116.9" stroke="rgb(0,0,0)"  stroke-width="1.0"/>
<line x1="239.7" y1="110.0" x2="238.8" y2="118.0" stroke="rgb(0,0,0)"  stroke-width="1.0"/>
<line x1="107.0" y1="84.6" x2="93.0" y2="84.6" stroke="rgb(0,0,0)"  stroke-width="2.0"/>
<line x1="80.0" y1="57.6" x2="80.0" y2="71.6" stroke="rgb(0,0,0)"  stroke-width="2.0"/>
<line x1="53.0" y1="81.6" x2="67.0" y2="81.6" stroke="rgb(0,0,0)"  stroke-width="2.0"/>
<line x1="53.0" y1="87.6" x2="67.0" y2="87.6" stroke="rgb(0,0,0)"  stroke-width="2.0"/>
<line x1="80.0" y1="111.6" x2="80.0" y2="97.6" stroke="rgb(0,0,0)"  stroke-width="2.0"/>
<line x1="279.1" y1="85.6" x2="303.6" y2="96.5" stroke="rgb(0,0,0)"  stroke-width="2.0"/>
<line x1="281.7" y1="94.7" x2="298.9" y2="102.3" stroke="rgb(0,0,0)"  stroke-width="2.0"/>
<line x1="314.3" y1="114.8" x2="311.5" y2="141.7" stroke="rgb(0,0,0)"  stroke-width="2.0"/>
<line x1="311.5" y1="141.7" x2="272.4" y2="150.0" stroke="rgb(0,0,0)"  stroke-width="2.0"/>
<line x1="272.4" y1="150.0" x2="258.9" y2="126.6" stroke="rgb(0,0,0)"  stroke-width="2.0"/>
<line x1="261.1" y1="105.7" x2="279.1" y2="85.6" stroke="rgb(0,0,0)"  stroke-width="2.0"/>
<line x1="286.8" y1="217.8" x2="313.0" y2="212.2" stroke="rgb(0,0,0)"  stroke-width="2.0"/>
<line x1="291.1" y1="209.5" x2="309.5" y2="205.6" stroke="rgb(0,0,0)"  stroke-width="2.0"/>
<line x1="329.9" y1="197.1" x2="338.3" y2="171.4" stroke="rgb(0,0,0)"  stroke-width="2.0"/>
<line x1="338.3" y1="171.4" x2="311.5" y2="141.7" stroke="rgb(0,0,0)"  stroke-width="2.0"/>
<line x1="328.9" y1="171.8" x2="310.2" y2="151.0" stroke="rgb(0,0,0)"  stroke-width="2.0"/>
<line x1="272.4" y1="150.0" x2="264.1" y2="175.5" stroke="rgb(0,0,0)"  stroke-width="2.0"/>
<line x1="277.4" y1="157.9" x2="271.6" y2="175.8" stroke="rgb(0,0,0)"  stroke-width="2.0"/>
<line x1="268.7" y1="197.7" x2="286.8" y2="217.8" stroke="rgb(0,0,0)"  stroke-width="2.0"/>
<line x1="153.5" y1="84.9" x2="149.3" y2="124.6" stroke="rgb(0,0,0)"  stroke-width="2.0"/>
<line x1="149.3" y1="124.6" x2="173.9" y2="135.6" stroke="rgb(0,0,0)"  stroke-width="2.0"/>
<line x1="194.5" y1="131.2" x2="212.6" y2="111.2" stroke="rgb(0,0,0)"  stroke-width="2.0"/>
<line x1="212.6" y1="111.2" x2="192.6" y2="76.5" stroke="rgb(0,0,0)"  stroke-width="2.0"/>
<line x1="192.6" y1="76.5" x2="153.5" y2="84.9" stroke="rgb(0,0,0)"  stroke-width="2.0"/>
<text x="319.900399" y="217.456575" fill="rgb(12,12,255)"  stroke="rgb(12,12,255)" stroke-width="1" font-size="16" >N</text>
<text x="74.000000" y="92.639162" fill="rgb(255,127,0)"  stroke="rgb(255,127,0)" stroke-width="1" font-size="16" >P</text>
<text x="179.823851" y="148.908627" fill="rgb(255,12,12)"  stroke="rgb(255,12,12)" stroke-width="1" font-size="16" >O</text>
<text x="74.000000" y="132.639162" fill="rgb(255,12,12)"  stroke="rgb(255,12,12)" stroke-width="1" font-size="16" >O</text>
<text x="34.000000" y="92.639162" fill="rgb(255,12,12)"  stroke="rgb(255,12,12)" stroke-width="1" font-size="16" >O</text>
<text x="74.000000" y="52.639162" fill="rgb(255,12,12)"  stroke="rgb(255,12,12)" stroke-width="1" font-size="16" >OH</text>
<text x="114.000000" y="92.639162" fill="rgb(255,12,12)"  stroke="rgb(255,12,12)" stroke-width="1" font-size="16" >OH</text>
<text x="202.858541" y="48.000000" fill="rgb(255,12,12)"  stroke="rgb(255,12,12)" stroke-width="1" font-size="16" >OH</text>
<text x="105.737378" y="66.093062" fill="rgb(255,12,12)"  stroke="rgb(255,12,12)" stroke-width="1" font-size="16" >HO</text>
<text x="246.369951" y="123.363973" fill="rgb(12,12,255)"  stroke="rgb(12,12,255)" stroke-width="1" font-size="16" >N</text>
<text x="309.676993" y="109.907646" fill="rgb(12,12,255)"  stroke="rgb(12,12,255)" stroke-width="1" font-size="16" >N</text>
<text x="254.009271" y="196.047250" fill="rgb(12,12,255)"  stroke="rgb(12,12,255)" stroke-width="1" font-size="16" >N</text>
<text x="373.386983" y="171.097847" fill="rgb(12,12,255)"  stroke="rgb(12,12,255)" stroke-width="1" font-size="16" >NH</text>
<text x="397.386983" y="174.777847" fill="rgb(12,12,255)"  stroke="rgb(12,12,255)" stroke-width="1" font-size="13" >2</text>
<text x="114.641016" y="144.639162" fill="rgb(255,0,0)"  stroke="rgb(255,0,0)" stroke-width="1" font-size="12" >1</text>
<text x="286.774495" y="217.773043" fill="rgb(255,0,0)"  stroke="rgb(255,0,0)" stroke-width="1" font-size="12" >2</text>
<text x="279.135175" y="85.638180" fill="rgb(255,0,0)"  stroke="rgb(255,0,0)" stroke-width="1" font-size="12" >3</text>
<text x="149.282032" y="124.639162" fill="rgb(255,0,0)"  stroke="rgb(255,0,0)" stroke-width="1" font-size="12" >4</text>
<text x="311.495855" y="141.688522" fill="rgb(255,0,0)"  stroke="rgb(255,0,0)" stroke-width="1" font-size="12" >5</text>
<text x="153.463171" y="84.858286" fill="rgb(255,0,0)"  stroke="rgb(255,0,0)" stroke-width="1" font-size="12" >6</text>
<text x="192.589075" y="76.541818" fill="rgb(255,0,0)"  stroke="rgb(255,0,0)" stroke-width="1" font-size="12" >7</text>
<text x="338.261079" y="171.414315" fill="rgb(255,0,0)"  stroke="rgb(255,0,0)" stroke-width="1" font-size="12" >8</text>
<text x="272.369951" y="150.004989" fill="rgb(255,0,0)"  stroke="rgb(255,0,0)" stroke-width="1" font-size="12" >9</text>
<text x="212.589075" y="111.182834" fill="rgb(255,0,0)"  stroke="rgb(255,0,0)" stroke-width="1" font-size="12" >10</text>
<text x="377.386983" y="163.097847" fill="rgb(255,0,0)"  stroke="rgb(255,0,0)" stroke-width="1" font-size="12" >11</text>
<text x="325.900399" y="209.456575" fill="rgb(255,0,0)"  stroke="rgb(255,0,0)" stroke-width="1" font-size="12" >12</text>
<text x="260.009271" y="188.047250" fill="rgb(255,0,0)"  stroke="rgb(255,0,0)" stroke-width="1" font-size="12" >13</text>
<text x="315.676993" y="101.907646" fill="rgb(255,0,0)"  stroke="rgb(255,0,0)" stroke-width="1" font-size="12" >14</text>
<text x="252.369951" y="115.363973" fill="rgb(255,0,0)"  stroke="rgb(255,0,0)" stroke-width="1" font-size="12" >15</text>
<text x="123.737378" y="58.093062" fill="rgb(255,0,0)"  stroke="rgb(255,0,0)" stroke-width="1" font-size="12" >16</text>
<text x="208.858541" y="40.000000" fill="rgb(255,0,0)"  stroke="rgb(255,0,0)" stroke-width="1" font-size="12" >17</text>
<text x="120.000000" y="84.639162" fill="rgb(255,0,0)"  stroke="rgb(255,0,0)" stroke-width="1" font-size="12" >18</text>
<text x="80.000000" y="44.639162" fill="rgb(255,0,0)"  stroke="rgb(255,0,0)" stroke-width="1" font-size="12" >19</text>
<text x="40.000000" y="84.639162" fill="rgb(255,0,0)"  stroke="rgb(255,0,0)" stroke-width="1" font-size="12" >20</text>
<text x="80.000000" y="124.639162" fill="rgb(255,0,0)"  stroke="rgb(255,0,0)" stroke-width="1" font-size="12" >21</text>
<text x="185.823851" y="140.908627" fill="rgb(255,0,0)"  stroke="rgb(255,0,0)" stroke-width="1" font-size="12" >22</text>
<text x="80.000000" y="84.639162" fill="rgb(255,0,0)"  stroke="rgb(255,0,0)" stroke-width="1" font-size="12" >23</text>
</svg>
<cml:molecule>
 <cml:atomArray>
  <cml:atom id="a1" elementType="C" x2="0.866025" y2="-1.500000"/>
  <cml:atom id="a2" elementType="C" x2="5.169362" y2="-3.328347"/>
  <cml:atom id="a3" elementType="C" x2="4.978379" y2="-0.024975"/>
  <cml:atom id="a4" elementType="C" x2="1.732051" y2="-1.000000">
   <cml:atomParity atomRefs4="a4 a1 a6 a22">1</cml:atomParity>
  </cml:atom>
  <cml:atom id="a5" elementType="C" x2="5.787396" y2="-1.426234"/>
  <cml:atom id="a6" elementType="C" x2="1.836579" y2="-0.005478">
   <cml:atomParity atomRefs4="a6 a4 a7 a16">1</cml:atomParity>
  </cml:atom>
  <cml:atom id="a7" elementType="C" x2="2.814727" y2="0.202434">
   <cml:atomParity atomRefs4="a7 a6 a10 a17">1</cml:atomParity>
  </cml:atom>
  <cml:atom id="a8" elementType="C" x2="6.456527" y2="-2.169379"/>
  <cml:atom id="a9" elementType="C" x2="4.809249" y2="-1.634146"/>
  <cml:atom id="a10" elementType="C" x2="3.314727" y2="-0.663592">
   <cml:atomParity atomRefs4="a10 a7 a15 a22">1</cml:atomParity>
  </cml:atom>
  <cml:atom id="a11" elementType="N" x2="7.434675" y2="-1.961467"/>
  <cml:atom id="a12" elementType="N" x2="6.147510" y2="-3.120435"/>
  <cml:atom id="a13" elementType="N" x2="4.500232" y2="-2.585202"/>
  <cml:atom id="a14" elementType="N" x2="5.891925" y2="-0.431712"/>
  <cml:atom id="a15" elementType="N" x2="4.309249" y2="-0.768120"/>
  <cml:atom id="a16" elementType="O" x2="1.093434" y2="0.663653"/>
  <cml:atom id="a17" elementType="O" x2="3.221464" y2="1.115979"/>
  <cml:atom id="a18" elementType="O" x2="1.000000" y2="-0.000000"/>
  <cml:atom id="a19" elementType="O" x2="0.000000" y2="1.000000"/>
  <cml:atom id="a20" elementType="O" x2="-1.000000" y2="-0.000000"/>
  <cml:atom id="a21" elementType="O" x2="0.000000" y2="-1.000000"/>
  <cml:atom id="a22" elementType="O" x2="2.645596" y2="-1.406737"/>
  <cml:atom id="a23" elementType="P" x2="0.000000" y2="-0.000000"/>
 </cml:atomArray>
 <cml:bondArray>
  <cml:bond atomRefs2="a1 a4" order="1"/>
  <cml:bond atomRefs2="a1 a21" order="1"/>
  <cml:bond atomRefs2="a2 a12" order="2"/>
  <cml:bond atomRefs2="a2 a13" order="1"/>
  <cml:bond atomRefs2="a3 a14" order="2"/>
  <cml:bond atomRefs2="a3 a15" order="1"/>
  <cml:bond atomRefs2="a4 a6" order="1"/>
  <cml:bond atomRefs2="a4 a22" order="1"/>
  <cml:bond atomRefs2="a5 a8" order="2"/>
  <cml:bond atomRefs2="a5 a9" order="1"/>
  <cml:bond atomRefs2="a5 a14" order="1"/>
  <cml:bond atomRefs2="a6 a7" order="1"/>
  <cml:bond atomRefs2="a6 a16" order="1"/>
  <cml:bond atomRefs2="a7 a10" order="1"/>
  <cml:bond atomRefs2="a7 a17" order="1"/>
  <cml:bond atomRefs2="a8 a11" order="1"/>
  <cml:bond atomRefs2="a8 a12" order="1"/>
  <cml:bond atomRefs2="a9 a13" order="2"/>
  <cml:bond atomRefs2="a9 a15" order="1"/>
  <cml:bond atomRefs2="a10 a15" order="1"/>
  <cml:bond atomRefs2="a10 a22" order="1"/>
  <cml:bond atomRefs2="a18 a23" order="1"/>
  <cml:bond atomRefs2="a19 a23" order="1"/>
  <cml:bond atomRefs2="a20 a23" order="2"/>
  <cml:bond atomRefs2="a21 a23" order="1"/>
 </cml:bondArray>
</cml:molecule>
</g>
<text font-size="18.000000" fill ="black" font-family="sans-serif"
x="10.000000" y="20.000000" ></text>
</svg>
